<svg width="51" height="23" viewBox="0 0 51 23" fill="none" xmlns="http://www.w3.org/2000/svg">
<path d="M10.2986 11.2988V8.59483H6.47458L3.46658 8.96283C3.46658 8.41883 3.96258 8.30683 4.66658 8.13083L7.06658 7.53883C8.98658 7.05883 10.3306 6.11483 10.3306 4.09883C10.3306 1.90683 8.98658 0.418828 5.59458 0.418828C1.81858 0.418828 0.34658 2.38683 0.34658 4.54683V4.78683H3.29058V4.57883C3.29058 3.60283 3.69058 3.15483 5.48258 3.15483C7.11458 3.15483 7.32258 3.50683 7.32258 4.05083C7.32258 4.54683 7.05058 4.75483 6.36258 4.97883L3.45058 5.90683C1.14658 6.64283 0.29858 7.58683 0.29858 9.41083V11.2988H10.2986ZM16.4931 11.4588C20.2371 11.4588 21.7731 9.87483 21.7731 7.49083C21.7731 5.26683 20.6051 3.93883 17.8371 3.93883C15.6291 3.93883 14.6051 4.83483 14.3651 5.47483H14.2051L14.4931 3.28283H21.1331V0.578828H11.8211L11.1811 6.96283H14.2371C14.4451 6.40283 15.1491 6.29083 16.5411 6.29083C18.2851 6.29083 18.5731 6.61083 18.5731 7.52283C18.5731 8.40283 18.2851 8.72283 16.5411 8.72283C14.5891 8.72283 14.2371 8.49883 14.2371 7.87483V7.77883H11.1331V7.87483C11.1331 10.4028 12.9411 11.4588 16.4931 11.4588ZM28.0868 11.4588C31.8308 11.4588 33.3668 9.87483 33.3668 7.49083C33.3668 5.26683 32.1988 3.93883 29.4308 3.93883C27.2228 3.93883 26.1988 4.83483 25.9588 5.47483H25.7988L26.0868 3.28283H32.7268V0.578828H23.4148L22.7748 6.96283H25.8308C26.0388 6.40283 26.7428 6.29083 28.1348 6.29083C29.8788 6.29083 30.1668 6.61083 30.1668 7.52283C30.1668 8.40283 29.8788 8.72283 28.1348 8.72283C26.1828 8.72283 25.8308 8.49883 25.8308 7.87483V7.77883H22.7268V7.87483C22.7268 10.4028 24.5348 11.4588 28.0868 11.4588ZM37.3286 11.2988V8.72283H38.7846L40.4806 11.2988H44.0326L41.2166 7.15483L44.0806 3.23483H40.5286L38.7526 6.03483H37.3286V0.578828H34.3206V11.2988H37.3286ZM48.5683 9.98568V7.84177H50.672V5.77826H48.5683V3.63435H46.4244V5.77826H44.3207V7.84177H46.4244V9.98568H48.5683Z" fill="white"/>
<path d="M12.6051 20.2348C13.7331 20.2348 14.4691 19.4508 14.4691 18.3708C14.4691 17.2588 13.7411 16.5148 12.6051 16.5148H10.3571V22.2988H11.1411V20.2348H12.6051ZM12.4691 17.2188C13.2051 17.2188 13.6451 17.6348 13.6451 18.3628C13.6451 19.0748 13.2131 19.5308 12.4371 19.5308H11.1411V17.2188H12.4691ZM17.4691 18.3548C17.3171 18.3228 17.2051 18.3068 17.0691 18.3068C16.5331 18.3068 16.1411 18.5788 15.9811 18.9868L15.9331 18.3948H15.2291V22.2988H15.9811V20.2268C15.9811 19.4748 16.4211 19.0428 17.1331 19.0428H17.4691V18.3548ZM19.7217 22.3948C20.6897 22.3948 21.3457 21.9228 21.5377 21.0828H20.8337C20.7057 21.5308 20.3217 21.7708 19.7377 21.7708C18.9937 21.7708 18.5617 21.3148 18.5057 20.4908L21.5297 20.4828V20.2028C21.5297 19.0428 20.8017 18.2748 19.6897 18.2748C18.5537 18.2748 17.7777 19.1228 17.7777 20.3468C17.7777 21.5628 18.5697 22.3948 19.7217 22.3948ZM19.6897 18.9068C20.3537 18.9068 20.7777 19.3388 20.7777 19.9868H18.5217C18.6177 19.2988 19.0337 18.9068 19.6897 18.9068ZM23.3329 22.2988H24.0769L25.7089 18.3868H24.9249L24.0529 20.5708C23.9169 20.9148 23.7889 21.2508 23.7249 21.5068C23.6609 21.2668 23.5489 20.9388 23.4129 20.5708L22.5569 18.3868H21.7569L23.3329 22.2988ZM26.6752 17.4588C26.9472 17.4588 27.1712 17.2348 27.1712 16.9628C27.1712 16.6828 26.9472 16.4668 26.6752 16.4668C26.4032 16.4668 26.1792 16.6828 26.1792 16.9628C26.1792 17.2348 26.4032 17.4588 26.6752 17.4588ZM26.3072 22.2988H27.0592V18.3868H26.3072V22.2988ZM29.8389 22.3948C30.8069 22.3948 31.4629 21.9228 31.6549 21.0828H30.9509C30.8229 21.5308 30.4389 21.7708 29.8549 21.7708C29.1109 21.7708 28.6789 21.3148 28.6229 20.4908L31.6469 20.4828V20.2028C31.6469 19.0428 30.9189 18.2748 29.8069 18.2748C28.6709 18.2748 27.8949 19.1228 27.8949 20.3468C27.8949 21.5628 28.6869 22.3948 29.8389 22.3948ZM29.8069 18.9068C30.4709 18.9068 30.8949 19.3388 30.8949 19.9868H28.6389C28.7349 19.2988 29.1509 18.9068 29.8069 18.9068ZM33.1941 22.2988H33.9381L34.6181 20.2108C34.7621 19.7388 34.8341 19.4828 34.8741 19.2908C34.9141 19.5068 34.9941 19.8108 35.1221 20.2028L35.8021 22.2988H36.5141L37.8501 18.3868H37.0661L36.4101 20.4188C36.2981 20.7628 36.2261 21.0348 36.1621 21.3468C36.0981 21.0668 35.9701 20.6108 35.9061 20.4188L35.2581 18.3868H34.4901L33.8341 20.4188C33.7461 20.6748 33.6421 21.0028 33.5781 21.3468C33.5061 21.0028 33.4261 20.7068 33.3381 20.4188L32.6901 18.3868H31.9141L33.1941 22.2988ZM38.12 21.1628C38.12 21.9068 38.704 22.3948 39.624 22.3948C40.552 22.3948 41.192 21.9228 41.192 21.1788C41.192 20.5948 40.864 20.2908 40.2 20.1308L39.512 19.9628C39.128 19.8668 38.936 19.6908 38.936 19.4268C38.936 19.0668 39.2 18.8588 39.672 18.8588C40.128 18.8588 40.392 19.1068 40.408 19.4988H41.128C41.112 18.7548 40.552 18.2748 39.696 18.2748C38.832 18.2748 38.224 18.7308 38.224 19.4508C38.224 20.0268 38.552 20.3708 39.248 20.5388L39.936 20.6988C40.344 20.8028 40.472 20.9628 40.472 21.2268C40.472 21.5868 40.168 21.8028 39.64 21.8028C39.144 21.8028 38.84 21.5628 38.84 21.1628H38.12Z" fill="#E7E7E7"/>
</svg>
