<svg width="9" height="9" viewBox="0 0 9 9" fill="none" xmlns="http://www.w3.org/2000/svg">
<mask id="mask0_1476_1158" style="mask-type:alpha" maskUnits="userSpaceOnUse" x="0" y="0" width="9" height="9">
<rect x="0.597168" y="0.797363" width="8" height="8" fill="#D9D9D9"/>
</mask>
<g mask="url(#mask0_1476_1158)">
<path d="M5.264 4.09753V3.53086C5.44733 3.45308 5.63489 3.39475 5.82666 3.35586C6.01822 3.31697 6.21955 3.29753 6.43066 3.29753C6.57511 3.29753 6.71678 3.30864 6.85566 3.33086C6.99455 3.35308 7.13066 3.38086 7.264 3.41419V3.94753C7.13066 3.89753 6.996 3.86008 6.86 3.83519C6.72378 3.81008 6.58066 3.79753 6.43066 3.79753C6.21955 3.79753 6.01678 3.82397 5.82233 3.87686C5.62789 3.92953 5.44178 4.00308 5.264 4.09753ZM5.264 5.93086V5.36419C5.44733 5.28641 5.63489 5.22808 5.82666 5.18919C6.01822 5.1503 6.21955 5.13086 6.43066 5.13086C6.57511 5.13086 6.71678 5.14197 6.85566 5.16419C6.99455 5.18642 7.13066 5.21419 7.264 5.24753V5.78086C7.13066 5.73086 6.996 5.69342 6.86 5.66853C6.72378 5.64342 6.58066 5.63086 6.43066 5.63086C6.21955 5.63086 6.01678 5.65586 5.82233 5.70586C5.62789 5.75586 5.44178 5.83086 5.264 5.93086ZM5.264 5.01419V4.44753C5.44733 4.36975 5.63489 4.31142 5.82666 4.27253C6.01822 4.23364 6.21955 4.21419 6.43066 4.21419C6.57511 4.21419 6.71678 4.2253 6.85566 4.24753C6.99455 4.26975 7.13066 4.29753 7.264 4.33086V4.86419C7.13066 4.81419 6.996 4.77675 6.86 4.75186C6.72378 4.72675 6.58066 4.71419 6.43066 4.71419C6.21955 4.71419 6.01678 4.74064 5.82233 4.79353C5.62789 4.84619 5.44178 4.91975 5.264 5.01419ZM2.764 6.13086C3.02511 6.13086 3.27933 6.15997 3.52666 6.21819C3.77378 6.27664 4.01955 6.36419 4.264 6.48086V3.19753C4.03622 3.06419 3.79455 2.96419 3.539 2.89753C3.28344 2.83086 3.02511 2.79753 2.764 2.79753C2.564 2.79753 2.36544 2.81697 2.16833 2.85586C1.971 2.89475 1.78066 2.95308 1.59733 3.03086V6.33086C1.79178 6.26419 1.98489 6.21419 2.17666 6.18086C2.36822 6.14753 2.564 6.13086 2.764 6.13086ZM4.93066 6.48086C5.17511 6.36419 5.421 6.27664 5.66833 6.21819C5.91544 6.15997 6.16955 6.13086 6.43066 6.13086C6.63066 6.13086 6.82655 6.14753 7.01833 6.18086C7.20989 6.21419 7.40289 6.26419 7.59733 6.33086V3.03086C7.414 2.95308 7.22378 2.89475 7.02666 2.85586C6.82933 2.81697 6.63066 2.79753 6.43066 2.79753C6.16955 2.79753 5.91122 2.83086 5.65566 2.89753C5.40011 2.96419 5.15844 3.06419 4.93066 3.19753V6.48086ZM4.59733 7.46419C4.33066 7.25308 4.04178 7.08919 3.73066 6.97253C3.41955 6.85586 3.09733 6.79753 2.764 6.79753C2.53066 6.79753 2.30155 6.82808 2.07666 6.88919C1.85155 6.9503 1.63622 7.03641 1.43066 7.14753C1.314 7.20864 1.20155 7.20586 1.09333 7.13919C0.984886 7.07253 0.930664 6.9753 0.930664 6.84753V2.83086C0.930664 2.76975 0.945997 2.71141 0.976664 2.65586C1.00711 2.6003 1.05289 2.55864 1.114 2.53086C1.36955 2.39753 1.63622 2.29753 1.914 2.23086C2.19178 2.16419 2.47511 2.13086 2.764 2.13086C3.08622 2.13086 3.40155 2.17253 3.71 2.25586C4.01822 2.33919 4.314 2.46419 4.59733 2.63086C4.88066 2.46419 5.17655 2.33919 5.485 2.25586C5.79322 2.17253 6.10844 2.13086 6.43066 2.13086C6.71955 2.13086 7.00289 2.16419 7.28066 2.23086C7.55844 2.29753 7.82511 2.39753 8.08066 2.53086C8.14178 2.55864 8.18766 2.6003 8.21833 2.65586C8.24878 2.71141 8.264 2.76975 8.264 2.83086V6.84753C8.264 6.9753 8.20989 7.07253 8.10166 7.13919C7.99322 7.20586 7.88066 7.20864 7.764 7.14753C7.55844 7.03641 7.34311 6.9503 7.118 6.88919C6.89311 6.82808 6.664 6.79753 6.43066 6.79753C6.09733 6.79753 5.77511 6.85586 5.464 6.97253C5.15289 7.08919 4.864 7.25308 4.59733 7.46419Z" fill="#A1A1A1"/>
</g>
</svg>
