<svg width="8" height="9" viewBox="0 0 8 9" fill="none" xmlns="http://www.w3.org/2000/svg">
<mask id="mask0_1476_1152" style="mask-type:alpha" maskUnits="userSpaceOnUse" x="0" y="0" width="8" height="9">
<rect y="0.797363" width="8" height="8" fill="#D9D9D9"/>
</mask>
<g mask="url(#mask0_1476_1152)">
<path d="M5.09984 6.36387L5.5665 5.8972L4.33317 4.66387V3.13053H3.6665V4.93053L5.09984 6.36387ZM3.99984 8.13053C3.53873 8.13053 3.10539 8.04298 2.69984 7.86787C2.29428 7.69298 1.9415 7.45553 1.6415 7.15553C1.3415 6.85553 1.10406 6.50276 0.929171 6.0972C0.754059 5.69164 0.666504 5.25831 0.666504 4.7972C0.666504 4.33609 0.754059 3.90276 0.929171 3.4972C1.10406 3.09165 1.3415 2.73887 1.6415 2.43887C1.9415 2.13887 2.29428 1.90131 2.69984 1.7262C3.10539 1.55131 3.53873 1.46387 3.99984 1.46387C4.46095 1.46387 4.89428 1.55131 5.29984 1.7262C5.70539 1.90131 6.05817 2.13887 6.35817 2.43887C6.65817 2.73887 6.89562 3.09165 7.0705 3.4972C7.24562 3.90276 7.33317 4.33609 7.33317 4.7972C7.33317 5.25831 7.24562 5.69164 7.0705 6.0972C6.89562 6.50276 6.65817 6.85553 6.35817 7.15553C6.05817 7.45553 5.70539 7.69298 5.29984 7.86787C4.89428 8.04298 4.46095 8.13053 3.99984 8.13053ZM3.99984 7.46387C4.73873 7.46387 5.36795 7.2042 5.8875 6.68487C6.40684 6.16531 6.6665 5.53609 6.6665 4.7972C6.6665 4.05831 6.40684 3.42909 5.8875 2.90953C5.36795 2.3902 4.73873 2.13053 3.99984 2.13053C3.26095 2.13053 2.63184 2.3902 2.1125 2.90953C1.59295 3.42909 1.33317 4.05831 1.33317 4.7972C1.33317 5.53609 1.59295 6.16531 2.1125 6.68487C2.63184 7.2042 3.26095 7.46387 3.99984 7.46387Z" fill="#A1A1A1"/>
</g>
</svg>
